<svg width="300" height="217" viewBox="0 0 300 217" fill="none" xmlns="http://www.w3.org/2000/svg">
<g clip-path="url(#clip0_3_295)">
<path d="M147.918 215.343H136.394V126.648H145.766C146.22 126.648 146.656 126.827 146.978 127.148C147.3 127.468 147.481 127.902 147.484 128.356L147.918 215.343Z" fill="#CCCCCC"/>
<path d="M137.471 215.813H13.7148V152.646H137.471V215.813Z" fill="white"/>
<path d="M88.6926 215.578H13.9497V152.881H137.236V167.034C137.222 179.904 132.103 192.243 123.002 201.344C113.902 210.444 101.563 215.563 88.6926 215.578Z" fill="#F2F2F2"/>
<path d="M146.041 129.167C145.979 129.285 145.931 129.409 145.898 129.538L141.63 145.987L137.001 154.753H14.1847V152.57L21.177 145.987L29.334 130.385C29.6941 129.696 30.1669 129.072 30.733 128.54C32.0245 127.324 33.7311 126.648 35.5045 126.648H144.523C144.819 126.648 145.11 126.724 145.368 126.87C145.625 127.015 145.841 127.225 145.994 127.479C146.147 127.732 146.231 128.021 146.24 128.317C146.248 128.612 146.18 128.905 146.041 129.167Z" fill="#F2F2F2"/>
<path d="M137.471 215.813H13.7148V152.646H137.471V215.813ZM14.6543 214.873H136.532V153.586H14.6543V214.873Z" fill="#E6E6E6"/>
<path d="M143.91 137.582L141.63 145.987H21.1771L25.0693 138.991L143.91 137.582Z" fill="#CCCCCC"/>
<path d="M38.0065 185.746H18.2786V186.838H38.0065V185.746Z" fill="white"/>
<path d="M38.0065 189.567H18.2786V190.659H38.0065V189.567Z" fill="white"/>
<path d="M38.0065 193.388H18.2786V194.48H38.0065V193.388Z" fill="white"/>
<path d="M25.9204 173.585C29.8395 173.585 33.0165 170.408 33.0165 166.489C33.0165 162.57 29.8395 159.393 25.9204 159.393C22.0014 159.393 18.8243 162.57 18.8243 166.489C18.8243 170.408 22.0014 173.585 25.9204 173.585Z" fill="white"/>
<path d="M103.695 141.22H97.6682V94.8366H102.57C102.807 94.8366 103.035 94.9306 103.203 95.098C103.371 95.2655 103.466 95.4927 103.468 95.7301L103.695 141.22Z" fill="#CCCCCC"/>
<path d="M98.2315 141.466H33.5127V108.433H98.2315V141.466Z" fill="white"/>
<path d="M72.7226 141.343H33.6355V108.556H98.1087V115.957C98.101 122.687 95.424 129.14 90.6648 133.899C85.9057 138.658 79.453 141.335 72.7226 141.343Z" fill="#F2F2F2"/>
<path d="M102.713 96.1541C102.681 96.2157 102.656 96.2808 102.638 96.3481L100.406 104.95L97.9857 109.535H33.7583V108.393L37.415 104.95L41.6807 96.7909C41.869 96.4307 42.1163 96.1045 42.4123 95.826C43.0877 95.1905 43.9802 94.8366 44.9076 94.8366H101.919C102.074 94.8366 102.226 94.8766 102.361 94.9528C102.496 95.0289 102.608 95.1385 102.688 95.2711C102.768 95.4037 102.813 95.5546 102.817 95.7094C102.821 95.8641 102.786 96.0173 102.713 96.1541Z" fill="#F2F2F2"/>
<path d="M98.2315 141.466H33.5127V108.433H98.2315V141.466ZM34.004 140.974H97.7402V108.924H34.004V140.974Z" fill="#E6E6E6"/>
<path d="M101.598 100.555L100.406 104.95H37.415L39.4504 101.291L101.598 100.555Z" fill="#CCCCCC"/>
<path d="M46.216 125.742H35.8992V126.313H46.216V125.742Z" fill="white"/>
<path d="M46.216 127.741H35.8992V128.312H46.216V127.741Z" fill="white"/>
<path d="M46.216 129.739H35.8992V130.31H46.216V129.739Z" fill="white"/>
<path d="M39.8956 119.383C41.9451 119.383 43.6065 117.721 43.6065 115.672C43.6065 113.622 41.9451 111.961 39.8956 111.961C37.8461 111.961 36.1847 113.622 36.1847 115.672C36.1847 117.721 37.8461 119.383 39.8956 119.383Z" fill="white"/>
<path d="M281.308 215.78L281.271 215.58C280.661 212.218 280.791 208.763 281.651 205.456C282.511 202.149 284.082 199.068 286.252 196.429C287.482 194.959 288.891 193.649 290.448 192.53L290.597 192.423L290.662 192.594C291.436 194.636 292.413 196.68 292.859 197.585L293.159 190.83L293.331 190.739C294.116 190.318 295.01 190.142 295.897 190.233C296.784 190.325 297.623 190.679 298.306 191.252C299.013 191.82 299.533 192.587 299.801 193.453C300.068 194.32 300.07 195.246 299.805 196.113C299.572 196.907 299.351 197.731 299.138 198.527C298.405 201.263 297.647 204.092 296.178 206.475C295.048 208.267 293.532 209.785 291.741 210.916C289.95 212.048 287.928 212.765 285.825 213.016L281.308 215.78Z" fill="#F2F2F2"/>
<path d="M300 215.698C300 215.771 299.986 215.844 299.958 215.912C299.93 215.98 299.889 216.042 299.837 216.094C299.785 216.146 299.723 216.187 299.655 216.215C299.587 216.243 299.514 216.257 299.441 216.257H0.558975C0.410726 216.257 0.268547 216.198 0.163719 216.093C0.058891 215.988 0 215.846 0 215.698C0 215.55 0.058891 215.407 0.163719 215.303C0.268547 215.198 0.410726 215.139 0.558975 215.139H299.441C299.514 215.139 299.587 215.153 299.655 215.181C299.723 215.209 299.785 215.25 299.837 215.302C299.889 215.354 299.93 215.416 299.958 215.484C299.986 215.552 300 215.624 300 215.698Z" fill="#CCCCCC"/>
<path d="M232.207 72.678L223.652 71.4526C220.758 76.2907 219.73 89.1683 219.73 89.1683L211.358 109.068C210.803 109.445 210.358 109.961 210.066 110.564C209.774 111.168 209.647 111.837 209.696 112.506C209.746 113.174 209.97 113.818 210.348 114.372C210.725 114.926 211.242 115.371 211.845 115.662C212.449 115.953 213.119 116.079 213.787 116.029C214.456 115.979 215.099 115.753 215.653 115.376C216.206 114.998 216.651 114.48 216.941 113.876C217.231 113.272 217.357 112.602 217.306 111.934L231.053 88.7713L232.207 72.678Z" fill="#FFB8B8"/>
<path d="M230.845 48.9273C232.169 49.1324 233.432 49.6268 234.543 50.3753C235.655 51.1238 236.587 52.1081 237.275 53.2581C237.963 54.4081 238.389 55.6955 238.522 57.0287C238.656 58.362 238.494 59.7083 238.048 60.9719L236.233 66.1177C236.233 66.1177 235.245 81.6115 231.476 85.985L219.911 84.9382C219.911 84.9382 222.025 77.1213 220.402 73.3392C219.408 71.023 219.463 63.0231 220.443 56.5153C220.626 55.3335 221.041 54.1995 221.663 53.1782C222.286 52.157 223.104 51.2685 224.07 50.5637C225.036 49.8589 226.132 49.3515 227.294 49.0708C228.457 48.79 229.663 48.7412 230.845 48.9273Z" fill="#E6E6E6"/>
<path d="M259.118 209.694L253.964 209.694L251.513 189.816L259.119 189.817L259.118 209.694Z" fill="#FFB6B6"/>
<path d="M259.299 215.07L243.452 215.07V214.869C243.452 213.233 244.102 211.664 245.259 210.508C246.415 209.351 247.984 208.701 249.62 208.701H249.621L252.515 206.505L257.916 208.701L259.299 208.701L259.299 215.07Z" fill="#2F2E41"/>
<path d="M236.713 185.059L231.953 187.033L222.074 169.611L229.1 166.698L236.713 185.059Z" fill="#FFB6B6"/>
<path d="M238.941 189.956L224.302 196.026L224.225 195.841C223.599 194.329 223.598 192.631 224.223 191.12C224.849 189.608 226.049 188.407 227.56 187.78L227.56 187.78L229.393 184.643L235.223 184.602L236.501 184.073L238.941 189.956Z" fill="#2F2E41"/>
<path d="M265.01 96.6203L228.438 100.441L223.546 116.918L206.604 144.145L225.31 178.513L231.898 172.6L225.574 144.847L244.448 124.471L248.027 122.986L250.868 198.597L261.376 198.769L265.974 115.338C268.184 107.967 267.519 101.882 265.01 96.6203Z" fill="#2F2E41"/>
<path d="M251.601 44.4585L245.599 37.6993L236.113 38.7532L230.041 47.2519C226.808 47.995 223.983 49.9487 222.148 52.7111C220.312 55.4735 219.604 58.8344 220.171 62.1024C222.528 75.6722 230.536 88.8332 227.892 95.5286C223.878 105.692 223.633 109.837 233.242 108.412C242.851 106.987 275.042 103.702 268.801 97.4612C262.56 91.2199 261.189 80.7906 261.189 80.7906L260.939 56.93C261.204 55.4909 261.169 54.0124 260.835 52.5877C260.501 51.1629 259.876 49.8226 258.999 48.6512C258.122 47.4798 257.012 46.5025 255.739 45.7809C254.466 45.0594 253.057 44.6091 251.601 44.4585L251.601 44.4585Z" fill="#E6E6E6"/>
<path d="M239.871 35.9696C245.686 35.9696 250.4 31.2556 250.4 25.4405C250.4 19.6255 245.686 14.9114 239.871 14.9114C234.056 14.9114 229.342 19.6255 229.342 25.4405C229.342 31.2556 234.056 35.9696 239.871 35.9696Z" fill="#FFB8B8"/>
<path d="M252.844 24.8153C252.374 26.9486 251.526 28.9806 250.34 30.8151C250.025 31.4407 249.555 31.9748 248.974 32.3661C248.68 32.5547 248.329 32.6343 247.983 32.591C247.636 32.5477 247.315 32.3842 247.077 32.1289L246.821 31.9202C247.323 31.6107 247.772 31.2214 248.149 30.7677C248.336 30.54 248.465 30.271 248.527 29.9831C248.589 29.6952 248.581 29.3967 248.505 29.1124C248.414 28.832 248.218 28.5978 247.957 28.459C247.697 28.3201 247.394 28.2874 247.11 28.3678C246.494 28.6097 246.119 29.5013 245.474 29.3638C244.952 29.25 244.843 28.5622 244.843 28.0215C244.862 25.1947 243.496 21.1775 242.438 21.3008C241.37 21.3592 240.3 21.216 239.284 20.8787C238.267 20.5407 237.195 20.4038 236.125 20.4755C236.05 20.485 235.974 20.4992 235.893 20.5134C235.722 19.9764 235.486 19.462 235.191 18.9815C235.224 19.5615 235.196 20.1434 235.106 20.7174C234.255 21.068 233.376 21.3457 232.478 21.5474C231.501 21.685 229.352 24.6066 229.253 24.3078C229.081 23.7707 228.846 23.2563 228.551 22.7758C228.584 23.3558 228.556 23.9378 228.466 24.5117C228.461 24.5354 228.461 24.5544 228.456 24.5781C227.982 23.9473 227.692 23.179 227.854 23.7671C226.265 20.172 226.881 17.5965 229.381 14.5658C229.868 13.9141 230.513 13.3968 231.254 13.0622C231.626 12.8991 232.033 12.8343 232.437 12.8742C232.841 12.9141 233.227 13.0572 233.559 13.2899C234.579 12.3552 235.83 11.7102 237.183 11.4217C238.535 11.1331 239.94 11.2116 241.253 11.6489C243.856 12.5548 245.863 13.086 246.261 15.8179C248.414 15.4717 250.629 16.6954 251.815 18.5214C252.996 20.3522 253.238 22.6762 252.844 24.8153Z" fill="#2F2E41"/>
<path d="M244.306 112.269H240.811V85.3731H243.653C243.791 85.3731 243.923 85.4276 244.021 85.5247C244.118 85.6218 244.174 85.7536 244.174 85.8912L244.306 112.269Z" fill="#3F3D56"/>
<path d="M241.138 112.412H203.61V93.257H241.138V112.412Z" fill="white"/>
<path d="M226.346 112.34H203.681V93.3282H241.067V97.6199C241.062 101.523 239.51 105.264 236.75 108.024C233.991 110.784 230.249 112.336 226.346 112.34Z" fill="#84CA9D"/>
<path d="M243.737 86.1371C243.718 86.1728 243.703 86.2105 243.693 86.2496L242.399 91.2376L240.996 93.8959H203.752V93.2338L205.873 91.2376L208.346 86.5063C208.456 86.2975 208.599 86.1084 208.771 85.9468C209.162 85.5783 209.68 85.3731 210.218 85.3731H243.276C243.366 85.3731 243.454 85.3963 243.533 85.4405C243.611 85.4846 243.676 85.5482 243.723 85.6251C243.769 85.7019 243.795 85.7895 243.797 85.8792C243.8 85.9689 243.779 86.0577 243.737 86.1371Z" fill="#3F3D56"/>
<path d="M241.138 112.412H203.61V93.257H241.138V112.412ZM203.895 112.127H240.853V93.5419H203.895V112.127Z" fill="#3F3D56"/>
<path d="M243.09 88.6885L242.399 91.2377H205.873L207.053 89.116L243.09 88.6885Z" fill="#84CA9D"/>
<path d="M210.976 103.294H204.994V103.625H210.976V103.294Z" fill="white"/>
<path d="M210.976 104.453H204.994V104.784H210.976V104.453Z" fill="white"/>
<path d="M210.976 105.612H204.994V105.943H210.976V105.612Z" fill="white"/>
<path d="M207.311 99.6066C208.5 99.6066 209.463 98.6432 209.463 97.4547C209.463 96.2663 208.5 95.3029 207.311 95.3029C206.123 95.3029 205.159 96.2663 205.159 97.4547C205.159 98.6432 206.123 99.6066 207.311 99.6066Z" fill="white"/>
<path d="M258.906 70.2188L250.351 68.9935C247.457 73.8316 246.429 86.7091 246.429 86.7091L238.057 106.609C237.502 106.985 237.057 107.502 236.765 108.105C236.473 108.709 236.346 109.378 236.395 110.047C236.445 110.715 236.67 111.359 237.047 111.913C237.424 112.467 237.941 112.912 238.544 113.203C239.148 113.494 239.818 113.62 240.487 113.57C241.155 113.52 241.798 113.294 242.352 112.916C242.906 112.538 243.35 112.021 243.64 111.417C243.93 110.813 244.056 110.143 244.005 109.475L257.752 86.3122L258.906 70.2188Z" fill="#FFB8B8"/>
<path d="M254.269 46.4682C255.593 46.6733 256.856 47.1677 257.967 47.9162C259.079 48.6647 260.011 49.649 260.699 50.799C261.387 51.9489 261.813 53.2363 261.946 54.5696C262.08 55.9029 261.918 57.2492 261.472 58.5128L259.657 63.6585C259.657 63.6585 261.944 79.1524 258.175 83.5259L246.61 82.479C246.61 82.479 248.724 74.6621 247.101 70.8801C246.107 68.5638 246.162 60.5639 247.142 54.0561C247.89 49.0869 249.303 45.6991 254.269 46.4682Z" fill="#E6E6E6"/>
<path d="M181.625 20.8323C177.445 22.9169 174.265 26.5765 172.783 31.0061C171.302 35.4357 171.64 40.2724 173.725 44.4522C178.066 53.1561 193.752 68.0007 206.268 70.2437C200.884 53.8972 208.37 37.2818 205.245 28.7324C201.906 19.597 190.329 16.4914 181.625 20.8323Z" fill="#84CA9D"/>
<path d="M187.492 41.5332C190.664 41.5332 193.236 38.9618 193.236 35.7897C193.236 32.6176 190.664 30.0461 187.492 30.0461C184.32 30.0461 181.748 32.6176 181.748 35.7897C181.748 38.9618 184.32 41.5332 187.492 41.5332Z" fill="white"/>
<path d="M206.157 79.4625C208.235 79.4625 209.919 77.7783 209.919 75.7006C209.919 73.6229 208.235 71.9387 206.157 71.9387C204.08 71.9387 202.395 73.6229 202.395 75.7006C202.395 77.7783 204.08 79.4625 206.157 79.4625Z" fill="#84CA9D"/>
<path opacity="0.2" d="M189.243 29.752C189.997 29.7258 190.749 29.8485 191.455 30.1131C192.162 30.3777 192.81 30.7789 193.362 31.2939C193.913 31.8089 194.358 32.4276 194.67 33.1145C194.983 33.8015 195.157 34.5433 195.182 35.2975C195.208 36.0517 195.084 36.8036 194.819 37.5101C194.554 38.2167 194.152 38.864 193.637 39.4152C193.121 39.9664 192.502 40.4105 191.815 40.7224C191.128 41.0342 190.386 41.2075 189.632 41.2324C190.91 40.757 191.977 39.8422 192.643 38.6517C193.308 37.4613 193.528 36.0729 193.263 34.7351C192.998 33.3972 192.266 32.1973 191.198 31.35C190.129 30.5027 188.794 30.0633 187.431 30.1106C188.011 29.8941 188.623 29.773 189.243 29.752Z" fill="#231F20"/>
<path opacity="0.2" d="M205.274 28.7357C208.399 37.2851 200.913 53.9005 206.297 70.247C205.115 70.0295 203.952 69.7249 202.815 69.3357C198.429 53.5337 205.313 37.7439 202.294 29.4836C199.592 22.0905 191.495 18.6474 183.891 19.9035C192.236 17.0573 202.214 20.364 205.274 28.7357Z" fill="#231F20"/>
<path d="M28.9634 108.056C24.6367 107.952 20.4459 109.571 17.313 112.557C14.1801 115.543 12.3616 119.652 12.2578 123.978C12.0414 132.988 18.4565 151.944 27.7352 159.204C30.4093 143.483 43.7402 133.118 44.8856 124.762C46.1095 115.833 37.9734 108.272 28.9634 108.056Z" fill="#D1D3D4"/>
<path d="M27.2873 128.171C30.2265 128.171 32.6093 125.788 32.6093 122.849C32.6093 119.91 30.2265 117.527 27.2873 117.527C24.348 117.527 21.9652 119.91 21.9652 122.849C21.9652 125.788 24.348 128.171 27.2873 128.171Z" fill="white"/>
<path d="M25.2803 167.112C27.2054 167.112 28.7661 165.551 28.7661 163.626C28.7661 161.701 27.2054 160.14 25.2803 160.14C23.3551 160.14 21.7944 161.701 21.7944 163.626C21.7944 165.551 23.3551 167.112 25.2803 167.112Z" fill="#D1D3D4"/>
<path opacity="0.2" d="M31.3373 118.663C32.6065 119.28 33.5785 120.376 34.0394 121.71C34.5003 123.045 34.4124 124.507 33.7949 125.776C33.4892 126.405 33.0627 126.967 32.5397 127.431C32.0168 127.894 31.4076 128.25 30.747 128.478C29.413 128.939 27.9504 128.851 26.6812 128.234C27.9341 128.399 29.2047 128.112 30.2655 127.425C31.3263 126.738 32.1082 125.697 32.4711 124.486C32.834 123.276 32.7542 121.976 32.2461 120.819C31.738 119.661 30.8347 118.723 29.6979 118.171C30.2673 118.245 30.8209 118.411 31.3373 118.663Z" fill="#231F20"/>
<path opacity="0.2" d="M44.9079 124.777C43.7625 133.133 30.4316 143.498 27.7576 159.22C26.8843 158.53 26.0632 157.776 25.3011 156.965C28.556 142.121 41.0368 132.172 42.1435 124.098C43.134 116.872 37.9939 110.543 31.2218 108.277C39.2903 109.562 46.0295 116.594 44.9079 124.777Z" fill="#231F20"/>
<path d="M90.874 38.7124C89.6579 38.7919 88.521 39.3429 87.7049 40.2479C86.8889 41.153 86.4583 42.3408 86.5046 43.5585C86.518 43.8059 86.5517 44.0518 86.6056 44.2936L72.7968 52.9931L80.431 56.3695L92.3737 47.5907C93.3591 47.2896 94.2171 46.6708 94.8138 45.8309C95.4105 44.9909 95.7124 43.9771 95.6723 42.9475C95.6438 42.3619 95.5003 41.7876 95.2499 41.2575C94.9996 40.7273 94.6472 40.2517 94.213 39.8577C93.7788 39.4637 93.2713 39.1591 92.7194 38.9613C92.1674 38.7635 91.582 38.6763 90.9964 38.7047C90.9555 38.7067 90.9147 38.7093 90.874 38.7124Z" fill="#FFB6B6"/>
<path d="M77.558 49.039L80.9804 56.1003L67.4487 64.808C66.4859 65.4329 65.3792 65.8013 64.2339 65.878C63.0886 65.9547 61.9428 65.7373 60.9052 65.2464C59.6437 64.6426 58.6127 63.6451 57.9675 62.4043C57.3223 61.1635 57.0979 59.7466 57.3281 58.3671L61.7189 33.3002C62.0136 31.546 62.9694 29.9715 64.3896 28.9005C65.8097 27.8294 67.5863 27.3433 69.3539 27.542C70.2149 27.6362 71.0489 27.899 71.8083 28.3154C72.5677 28.7319 73.2376 29.2938 73.7798 29.9692C74.3221 30.6446 74.726 31.4201 74.9685 32.2516C75.211 33.083 75.2873 33.9541 75.1932 34.8151C75.1857 34.8831 75.1772 34.951 75.1677 35.0187C75.1345 35.2596 75.0883 35.4985 75.0294 35.7344L70.2361 53.5615L77.558 49.039Z" fill="#84CA9D"/>
<path d="M78.5197 59.9857H59.1678V79.3376H78.5197V59.9857Z" fill="#FFB8B8"/>
<path d="M124.413 116.978L131.803 114.492L135.919 134.609L130.911 136.294L124.413 116.978Z" fill="#FFB6B6"/>
<path d="M111.886 115.432L119.217 112.775L123.8 132.791L118.833 134.591L111.886 115.432Z" fill="#FFB6B6"/>
<path d="M59.862 84.3932C55.9833 110.251 107.635 94.9636 107.635 94.9636L123.83 117.305L133.311 115.581C133.311 115.581 129.045 102.169 121.426 84.1894C118.043 76.2048 79.6223 78.1558 79.6223 78.1558L78.8246 71.8951L56.8452 71.4642L59.862 84.3932Z" fill="#2F2E41"/>
<path d="M97.1726 96.697L109.117 89.2583C117.86 106.718 120.438 114.28 120.438 114.28L112.171 116.605L97.1726 96.697Z" fill="#2F2E41"/>
<path d="M70.9172 28.5389L67.022 23.532L61.4657 23.2911L60.9111 28.0001L58.158 29.2697C55.409 39.7135 54.9844 50.6332 56.9143 61.2589C57.2832 61.6064 57.5528 62.0459 57.6953 62.5323C57.8377 63.0186 57.8478 63.5342 57.7245 64.0257L57.546 64.7373L57.5625 64.7634C58.1483 65.6878 58.3471 66.8055 58.1159 67.8752L56.8011 70.2114C56.3293 71.0516 56.0461 71.9844 55.9713 72.9451C55.8965 73.9058 56.0319 74.8712 56.3679 75.7743C56.704 76.6773 57.2328 77.4964 57.9175 78.1744C58.6021 78.8524 59.4263 79.3732 60.3326 79.7004C68.4145 82.6299 75.9905 83.721 81.5953 75.5006L83.3577 46.854L70.9172 28.5389Z" fill="#84CA9D"/>
<path d="M66.8367 24.8617C72.5105 24.8617 77.11 20.2621 77.11 14.5884C77.11 8.91456 72.5105 4.31504 66.8367 4.31504C61.1629 4.31504 56.5634 8.91456 56.5634 14.5884C56.5634 20.2621 61.1629 24.8617 66.8367 24.8617Z" fill="#FFB8B8"/>
<path d="M61.6794 2.20402C57.3295 2.28759 53.8795 6.32241 53.9735 11.216C50.7545 14.5749 49.9747 31.0956 52.6644 35.4905C57.5846 36.0617 60.5774 23.8889 64.8923 25.6486L65.4608 22.9921L66.7493 26.4516C67.8458 26.9571 68.9341 27.512 70.0141 28.1163C70.7903 24.5562 70.5978 21.0958 68.5118 18.0817C66.6585 15.404 71.1685 12.2251 74.3938 12.6744L74.3466 10.215L75.1567 12.6597C76.414 13.5836 77.8048 13.2491 79.2309 12.5814C81.5435 0.561995 63.6385 -2.72494 61.6794 2.20402Z" fill="#2F2E41"/>
<path d="M128.635 139.697L131.927 139.266L132.109 136.081L134.02 138.993L142.754 137.852C143.172 137.798 143.562 137.611 143.867 137.318C144.172 137.026 144.375 136.644 144.448 136.228C144.52 135.813 144.458 135.384 144.27 135.006C144.081 134.629 143.777 134.321 143.402 134.128L135.798 130.222L135.388 127.079L128.109 128.475L128.635 139.697Z" fill="#2F2E41"/>
<path d="M119.938 139.725L122.925 138.275L122.088 135.196L124.824 137.353L132.746 133.506C133.126 133.321 133.437 133.02 133.634 132.647C133.83 132.273 133.902 131.846 133.839 131.429C133.776 131.011 133.582 130.625 133.283 130.326C132.985 130.027 132.599 129.832 132.182 129.768L123.733 128.47L122.349 125.619L115.887 129.248L119.938 139.725Z" fill="#2F2E41"/>
<path d="M74.8428 71.2181H78.5057V43.0263H75.5267C75.3824 43.0263 75.244 43.0834 75.1417 43.1852C75.0395 43.2869 74.9816 43.4251 74.9809 43.5694L74.8428 71.2181Z" fill="#CCCCCC"/>
<path d="M78.1633 51.2899H117.499V71.3673H78.1633V51.2899Z" fill="white"/>
<path d="M78.238 55.8631V51.3646H117.425V71.2927H93.6677C89.5769 71.288 85.655 69.6609 82.7624 66.7683C79.8698 63.8757 78.2427 59.9538 78.238 55.8631Z" fill="#F2F2F2"/>
<path d="M75.4393 43.8271C75.4591 43.8645 75.4744 43.904 75.485 43.945L76.8414 49.1733L78.3127 51.9597H117.35V51.2657L115.127 49.1733L112.535 44.2141C112.42 43.9952 112.27 43.797 112.09 43.6277C111.68 43.2414 111.137 43.0263 110.573 43.0263H75.9219C75.8278 43.0263 75.7354 43.0506 75.6535 43.0969C75.5715 43.1432 75.503 43.2098 75.4544 43.2904C75.4059 43.371 75.379 43.4627 75.3763 43.5567C75.3737 43.6508 75.3954 43.7439 75.4393 43.8271Z" fill="#F2F2F2"/>
<path d="M78.1633 51.2899H117.499V71.3673H78.1633V51.2899ZM117.201 71.0687H78.4619V51.5886H117.201L117.201 71.0687Z" fill="#E6E6E6"/>
<path d="M76.1168 46.5015L76.8416 49.1733H115.128L113.89 46.9496L76.1168 46.5015Z" fill="#CCCCCC"/>
<path d="M116.049 61.8108H109.778V62.1578H116.049V61.8108Z" fill="white"/>
<path d="M116.049 63.0253H109.778V63.3722H116.049V63.0253Z" fill="white"/>
<path d="M116.049 64.2398H109.778V64.5867H116.049V64.2398Z" fill="white"/>
<path d="M113.62 57.9454C114.865 57.9454 115.875 56.9356 115.875 55.6899C115.875 54.4442 114.865 53.4344 113.62 53.4344C112.374 53.4344 111.364 54.4442 111.364 55.6899C111.364 56.9356 112.374 57.9454 113.62 57.9454Z" fill="white"/>
<path d="M95.4249 21.6099C98.076 21.5462 100.644 22.5384 102.564 24.368C104.483 26.1976 105.597 28.7149 105.661 31.3661C105.794 36.8869 101.863 48.5019 96.1774 52.9506C94.5388 43.3175 86.3704 36.9665 85.6686 31.8462C84.9187 26.375 89.9041 21.7424 95.4249 21.6099Z" fill="#D1D3D4"/>
<path d="M96.452 33.9353C98.253 33.9353 99.713 32.4752 99.713 30.6742C99.713 28.8732 98.253 27.4132 96.452 27.4132C94.6509 27.4132 93.1909 28.8732 93.1909 30.6742C93.1909 32.4752 94.6509 33.9353 96.452 33.9353Z" fill="white"/>
<path d="M97.6817 57.7959C98.8613 57.7959 99.8176 56.8396 99.8176 55.66C99.8176 54.4803 98.8613 53.524 97.6817 53.524C96.5021 53.524 95.5458 54.4803 95.5458 55.66C95.5458 56.8396 96.5021 57.7959 97.6817 57.7959Z" fill="#D1D3D4"/>
<path opacity="0.2" d="M93.9703 28.1089C93.5853 28.2963 93.2408 28.5576 92.9567 28.8781C92.6727 29.1985 92.4545 29.5718 92.3146 29.9765C92.1748 30.3813 92.116 30.8096 92.1417 31.2371C92.1674 31.6646 92.2771 32.0828 92.4644 32.4679C92.6518 32.853 92.9131 33.1974 93.2335 33.4815C93.554 33.7656 93.9273 33.9838 94.332 34.1236C94.7368 34.2634 95.1651 34.3222 95.5926 34.2965C96.0201 34.2708 96.4383 34.1611 96.8234 33.9738C96.0556 34.0746 95.2771 33.8989 94.6271 33.4781C93.9771 33.0574 93.498 32.419 93.2756 31.6773C93.0533 30.9356 93.1021 30.139 93.4135 29.43C93.7248 28.721 94.2783 28.146 94.9748 27.8078C94.626 27.8533 94.2867 27.955 93.9703 28.1089Z" fill="#231F20"/>
<path opacity="0.2" d="M85.655 31.8555C86.3569 36.9758 94.5253 43.3269 96.1638 52.96C96.6989 52.5372 97.202 52.0754 97.669 51.5783C95.6746 42.4833 88.027 36.3869 87.3489 31.4398C86.742 27.012 89.8916 23.134 94.0411 21.7454C89.0972 22.5329 84.9678 26.8417 85.655 31.8555Z" fill="#231F20"/>
<path d="M89.6155 48.7274C88.4003 48.6374 87.1978 49.0251 86.264 49.8082C85.3303 50.5912 84.7389 51.7077 84.6158 52.9201C84.5946 53.1669 84.594 53.4151 84.6138 53.662L69.731 60.3604L76.8226 64.7639L89.8683 57.7279C90.886 57.5666 91.8215 57.0729 92.5291 56.3239C93.2366 55.5749 93.6763 54.6128 93.7795 53.5876C93.8868 52.4084 93.5212 51.2349 92.7633 50.3252C92.0053 49.4155 90.917 48.8441 89.7378 48.7368C89.6971 48.7331 89.6563 48.73 89.6155 48.7274Z" fill="#FFB6B6"/>
<path d="M74.9949 57.1055L77.4039 64.5735L62.7945 71.3185C61.7542 71.8037 60.6071 72.0148 59.4623 71.9318C58.3175 71.8488 57.2128 71.4745 56.2535 70.8443C55.088 70.0712 54.2054 68.9403 53.7387 67.6219C53.272 66.3035 53.2465 64.8692 53.666 63.5351L61.494 39.3203C62.0294 37.624 63.1945 36.1975 64.7496 35.3339C66.3046 34.4704 68.1315 34.2356 69.8544 34.6778C70.694 34.8905 71.4834 35.2666 72.1776 35.7844C72.8719 36.3022 73.4573 36.9518 73.9006 37.6958C74.3438 38.4399 74.6361 39.264 74.7608 40.1211C74.8856 40.9782 74.8403 41.8514 74.6275 42.691C74.6107 42.7573 74.5929 42.8234 74.574 42.8892C74.5077 43.1231 74.4288 43.3533 74.3377 43.5787L67.1161 60.5678L74.9949 57.1055Z" fill="#84CA9D"/>
</g>
<defs>
<clipPath id="clip0_3_295">
<rect width="300" height="216.257" fill="white"/>
</clipPath>
</defs>
</svg>
